<svg width="283" height="220" viewBox="0 0 283 220" fill="none" xmlns="http://www.w3.org/2000/svg">
<ellipse opacity="0.1" cx="99.7791" cy="206.429" rx="49.1199" ry="9.29013" fill="#008080"/>
<path opacity="0.1" d="M164.331 31.0209C146.278 30.3971 129.085 24.5769 112.667 18.2108C96.2491 11.8447 79.9874 4.79359 62.3673 1.42119C51.0343 -0.748179 38.0724 -1.05729 28.9429 5.00245C20.1538 10.8506 17.3142 20.9176 15.7885 30.2663C14.6393 37.3007 13.9643 44.7055 17.1106 51.2916C19.2975 55.8642 23.1746 59.7073 25.8579 64.0878C35.1938 79.3263 28.5942 98.1182 18.4802 112.997C13.7383 119.976 8.22944 126.643 4.56707 134.064C0.904694 141.486 -0.788422 150.019 2.4165 157.61C5.59075 165.129 13.1582 170.765 21.356 174.734C38.0054 182.796 57.6171 185.102 76.7546 186.411C119.105 189.301 161.678 188.051 204.14 186.795C219.855 186.333 235.637 185.862 251.095 183.436C259.681 182.089 268.542 179.95 274.777 174.787C282.687 168.234 284.648 157.139 279.346 148.924C270.453 135.139 245.874 131.717 239.651 116.927C236.231 108.784 239.743 99.7166 244.716 92.167C255.383 75.9678 273.259 61.7569 274.199 43.2435C274.846 30.528 266.252 17.7931 252.964 11.7751C239.037 5.46752 219.721 6.26119 209.451 16.7014C198.865 27.4397 180.272 31.5751 164.331 31.0209Z" fill="#008080"/>
<path d="M82.3124 33.9264L81.7378 33.8651C81.9275 33.8735 82.1283 33.9097 82.3124 33.9264Z" fill="url(#paint0_linear_4_105)"/>
<path opacity="0.1" d="M89.9439 87.8208C89.9439 87.8208 80.1171 89.4639 81.0683 92.8975C81.0683 92.8975 84.6358 89.191 89.9439 87.8208Z" fill="black"/>
<path opacity="0.1" d="M90.0195 89.2104C90.0195 89.2104 84.6166 93.6132 85.6737 93.8388C86.7309 94.0644 90.0195 89.2104 90.0195 89.2104Z" fill="black"/>
<path opacity="0.1" d="M92.6161 90.7449C92.6161 90.7449 91.1684 93.7051 92.0582 93.5046C92.948 93.3041 92.6161 90.7449 92.6161 90.7449Z" fill="black"/>
<path d="M81.0937 32.974C80.8207 33.0273 80.5591 33.1282 80.3211 33.272C80.0421 33.5031 80.0421 33.8986 79.9724 34.2439C79.8905 34.7242 79.6997 35.1795 79.4146 35.575C79.732 35.5983 80.0503 35.5458 80.3434 35.4218C80.2957 35.803 80.202 36.177 80.0645 36.5358C80.4195 36.5448 80.7468 36.3454 80.9013 36.0261C81.0488 35.7123 81.1656 35.385 81.2499 35.0487C81.2761 34.9481 81.3216 34.8535 81.3838 34.7702C81.6404 34.4667 82.1174 34.6031 82.5135 34.6421C83.1847 34.6986 83.8339 34.3873 84.2094 33.8289C84.6306 33.1912 84.6557 31.5593 83.6515 31.3867C82.6027 31.214 81.95 32.6565 81.0937 32.974Z" fill="#965D7B"/>
<g opacity="0.1">
<path d="M80.2928 33.6145C80.3179 33.4781 80.3346 33.336 80.3653 33.1996V33.1996C80.1003 33.4307 80.0864 33.8234 80.0166 34.1715C79.9815 34.3723 79.9264 34.5692 79.8521 34.7591C80.0717 34.4096 80.2213 34.0209 80.2928 33.6145V33.6145Z" fill="black"/>
<path d="M80.3821 35.9148C80.521 35.5564 80.6147 35.1823 80.661 34.8008C80.3818 34.9182 80.0794 34.9706 79.7768 34.954C79.6888 35.1499 79.5813 35.3364 79.4561 35.511C79.7723 35.5354 80.0899 35.4838 80.3821 35.3606C80.3358 35.742 80.2421 36.1162 80.1032 36.4745C80.458 36.4828 80.785 36.2837 80.94 35.9649C81.0095 35.8383 81.0656 35.7049 81.1073 35.5667C80.941 35.7987 80.6675 35.93 80.3821 35.9148V35.9148Z" fill="black"/>
<path d="M82.8313 34.0211C82.4353 33.9821 81.9555 33.8456 81.6989 34.1492C81.6378 34.2332 81.5924 34.3275 81.565 34.4277C81.5399 34.5001 81.5176 34.5753 81.498 34.6505C81.763 34.4416 82.1926 34.553 82.5524 34.5892C83.2233 34.6439 83.8716 34.333 84.2483 33.776C84.3329 33.6408 84.3959 33.4933 84.4352 33.3388C84.0473 33.8181 83.4463 34.0738 82.8313 34.0211Z" fill="black"/>
</g>
<path d="M89.4894 55.9737L93.7431 61.0811L93.1881 66.2358L88.0474 58.2016L89.4894 55.9737V55.9737Z" fill="#DCE6F2"/>
<path opacity="0.1" d="M93.7404 61.0811L93.2188 65.9294L93.1853 66.2358L88.5467 58.9841L88.0474 58.2016L88.1924 57.976L89.4867 55.9737L89.774 56.3191L93.7404 61.0811V61.0811Z" fill="black"/>
<path d="M95.9494 49.0591C94.5101 49.4712 93.1349 50.8859 91.9383 52.6041C91.1295 53.7897 90.4062 55.0311 89.7738 56.3191C89.3805 57.1044 89.0346 57.8591 88.7473 58.5163L88.5465 58.9841C88.0612 60.1287 87.7906 60.8945 87.7906 60.8945C87.7906 60.8945 76.7728 52.6236 78.5161 52.0667C79.1019 51.8801 79.8717 50.6269 80.6332 49.0479L80.7281 48.8474C81.2106 47.8337 81.6848 46.7031 82.106 45.6393C82.9679 43.4532 83.6066 41.554 83.6066 41.554C83.6066 41.554 100.343 47.8059 95.9494 49.0591Z" fill="#EFB7B9"/>
<path d="M102.541 41.0889C102.541 41.0889 105.084 45.6839 108.501 45.0573C111.918 44.4307 110.512 42.5899 110.512 42.5899L102.541 41.0889Z" fill="#444053"/>
<path d="M97.6118 200.143C95.3581 201.171 90.262 200.143 90.262 200.143L88.1142 200.01C85.3249 199.831 80.6556 199.531 79.0043 199.397C76.5943 199.199 77.1857 198.213 77.1857 198.213V192.257L88.8785 189.299C88.8785 189.299 93.5004 190.878 94.7667 192.257C95.9689 193.571 96.6718 192.56 98.8168 192.939C98.9228 192.959 99.0344 192.981 99.1515 193.009C101.188 193.474 102.292 193.658 102.945 195.342C103.076 195.696 103.182 196.059 103.26 196.428C103.863 199.141 99.8628 199.121 97.6118 200.143Z" fill="#A36468"/>
<path opacity="0.1" d="M102.945 195.342C102.526 195.604 102.086 195.829 101.628 196.016C100.094 196.715 98.6355 197.567 97.0847 198.227C95.5338 198.887 93.863 199.358 92.1838 199.233C91.3052 199.169 90.407 198.954 89.5674 199.205C89.0482 199.405 88.5592 199.676 88.1142 200.01C85.3249 199.831 80.6556 199.531 79.0043 199.397C76.5943 199.199 77.1857 198.214 77.1857 198.214V197.517C77.2721 197.517 77.3698 197.492 77.4813 197.484C78.0586 197.475 78.6334 197.56 79.1828 197.737C80.3934 198.066 81.5984 198.389 82.8089 198.712C83.0102 197.954 83.5144 197.312 84.2036 196.935C84.8945 196.569 85.67 196.391 86.4518 196.42C88.329 196.445 90.1058 197.334 91.9802 197.423C92.5042 197.471 93.0318 197.382 93.5115 197.166C93.7682 197.038 93.9941 196.852 94.2451 196.71C94.6469 196.516 95.0714 196.373 95.5087 196.284C96.7379 195.978 97.9447 195.589 99.1209 195.12C99.4556 194.989 99.8461 194.752 99.8015 194.396C99.7429 193.922 98.9981 193.866 98.8029 193.432C98.733 193.273 98.7413 193.091 98.8252 192.939C98.9312 192.959 99.0428 192.981 99.1599 193.009C101.188 193.474 102.292 193.658 102.945 195.342Z" fill="black"/>
<path d="M95.2297 213.176C92.5799 214.385 86.5829 213.176 86.5829 213.176L84.0585 213.029C80.7895 212.82 75.2833 212.472 73.3392 212.307C70.5024 212.074 71.1998 210.915 71.1998 210.915V203.895L84.9595 200.414C84.9595 200.414 90.3986 202.271 91.8881 203.895C93.3023 205.44 94.1196 204.251 96.6551 204.697C96.7806 204.719 96.9117 204.747 97.0484 204.777C99.4444 205.334 100.744 205.543 101.511 207.526C101.667 207.942 101.791 208.369 101.882 208.804C102.574 211.996 97.8796 211.97 95.2297 213.176Z" fill="#A36468"/>
<path opacity="0.1" d="M101.506 207.526C101.013 207.833 100.495 208.099 99.9576 208.32C98.153 209.141 96.4347 210.144 94.6105 210.921C92.7863 211.698 90.8198 212.249 88.8422 212.104C87.8102 212.029 86.753 211.77 85.774 212.071C85.1605 212.309 84.5832 212.632 84.0585 213.029C80.7895 212.82 75.2833 212.472 73.3392 212.307C70.5024 212.073 71.1998 210.915 71.1998 210.915V210.096C71.3153 210.077 71.4316 210.064 71.5484 210.057C72.228 210.045 72.9048 210.146 73.5512 210.355L77.816 211.503C78.0561 210.608 78.6543 209.852 79.4701 209.411C80.2831 208.979 81.1965 208.769 82.1172 208.804C84.3263 208.835 86.4155 209.879 88.6219 209.985C89.2363 210.041 89.8549 209.938 90.4182 209.687C90.7222 209.534 90.976 209.314 91.2829 209.149C91.7546 208.919 92.2544 208.75 92.7696 208.648C94.208 208.286 95.6207 207.828 96.9982 207.278C97.3915 207.122 97.8517 206.844 97.7987 206.426C97.729 205.869 96.8531 205.802 96.6216 205.29C96.5426 205.102 96.5528 204.889 96.6495 204.71C96.775 204.733 96.9061 204.761 97.0428 204.791C99.4388 205.326 100.739 205.543 101.506 207.526Z" fill="black"/>
<path d="M89.2329 165.002L88.4881 182.499C88.4881 182.499 87.3724 186.072 87.9777 187.094C88.583 188.116 89.6039 189.135 89.2329 189.739C88.8619 190.344 84.399 196.877 82.9569 194.37C81.5148 191.864 80.0923 181.003 80.0923 181.003L81.4228 167.589L89.2329 165.002Z" fill="#444053"/>
<path d="M92.4628 121.408L94.5325 124.171V148.198C94.5325 148.198 95.1377 154.603 94.5325 155.926C93.9272 157.249 90.8589 159.895 90.8589 159.895L88.2788 146.667L88.8367 132.673L92.4628 121.408Z" fill="#444053"/>
<path opacity="0.1" d="M89.2329 165.002L88.4881 182.499C88.4881 182.499 87.3724 186.072 87.9777 187.094C88.583 188.116 89.6039 189.135 89.2329 189.739C88.8619 190.344 84.399 196.877 82.9569 194.37C81.5148 191.864 80.0923 181.003 80.0923 181.003L81.4228 167.589L89.2329 165.002Z" fill="black"/>
<path opacity="0.1" d="M92.4628 121.408L94.5325 124.171V148.198C94.5325 148.198 95.1377 154.603 94.5325 155.926C93.9272 157.249 90.8589 159.895 90.8589 159.895L88.2788 146.667L88.8367 132.673L92.4628 121.408Z" fill="black"/>
<path d="M94.6056 108.683V121.679L92.2821 131.797C92.2821 131.797 91.5373 156.211 92.1872 159.18C92.8371 162.148 89.9558 164.936 89.9558 164.936C89.9558 164.936 88.2822 165.122 88.2822 166.42C88.2822 167.718 85.4929 171.433 85.4929 171.433L85.5849 178.673C85.5849 178.673 86.7955 192.227 84.935 194.825C83.0745 197.423 85.5849 197.797 85.5849 197.797C83.2614 205.407 72.1041 203.645 71.0972 202.809C70.0902 201.974 71.0972 185.543 71.0972 185.543C71.0972 185.543 73.5908 160.48 75.5434 159.366C77.4959 158.252 75.6382 156.86 76.2881 155.189C76.938 153.518 75.6382 148.97 75.6382 148.97C75.6382 148.97 75.0803 143.585 73.6857 140.986C72.291 138.388 72.4751 131.24 72.4751 131.24C72.4751 131.24 70.1961 125.541 69.0358 123.5C67.8754 121.459 67.1308 116.493 67.4097 112.5C67.5994 109.802 67.3902 106.045 68.2911 103.784C68.7235 102.701 69.0359 101.999 69.0359 101.999L69.3009 102.069L84.5361 106.051L94.6056 108.683Z" fill="#444053"/>
<path opacity="0.1" d="M95.9497 49.0591C94.5104 49.4712 93.1353 50.8859 91.9386 52.6041H91.6262C88.0561 52.6066 84.7574 50.7018 82.9794 47.611C82.6143 46.9817 82.3205 46.3139 82.1035 45.6198C82.9654 43.4337 83.6042 41.5345 83.6042 41.5345C83.6042 41.5345 100.343 47.8059 95.9497 49.0591Z" fill="black"/>
<path d="M101.598 42.097C101.605 46.2727 99.0008 50.0089 95.0767 51.4538C91.1527 52.8987 86.7424 51.7453 84.0319 48.5652C81.3214 45.3851 80.8866 40.8541 82.943 37.218C83.2453 36.6789 83.5984 36.1698 83.9974 35.6975C84.6552 34.9152 85.4283 34.2372 86.2902 33.6869C89.2518 31.8079 92.9847 31.6213 96.1195 33.1956C99.2543 34.7699 101.33 37.8733 101.584 41.3674C101.59 41.6125 101.598 41.8548 101.598 42.097Z" fill="#EFB7B9"/>
<path opacity="0.1" d="M93.2186 65.9294L93.1852 66.2358L88.5465 58.9953C88.0612 60.1398 87.7906 60.9056 87.7906 60.9056C87.7906 60.9056 76.7728 52.6236 78.5161 52.0667C79.1019 51.8801 79.8717 50.6269 80.6332 49.0479L80.7281 48.8474C81.537 51.2535 86.237 56.0629 88.1923 57.9899C88.4182 58.2127 88.6051 58.3965 88.7501 58.5302L89.0486 58.8087L89.2048 58.9646C89.9161 59.697 92.9174 62.9274 93.2186 65.9294Z" fill="black"/>
<path d="M94.7222 89.3973L94.2835 105.187L94.2064 107.999C94.2064 107.999 89.01 107.46 84.1608 106.867C80.2563 106.39 76.5759 105.875 76.0095 105.573C75.2865 105.193 73.7367 104.899 72.5148 104.713C71.57 104.57 71.8556 103.92 71.8556 103.92C73.7475 103.346 70.9915 103.813 71.8556 103.92C70.6384 102.737 68.9284 98.4005 69.7261 97.368L69.261 94.2365L68.4777 86.1623C68.4777 86.1623 67.9957 81.5118 67.2727 79.0181C67.0793 78.3091 66.9399 77.5831 66.8557 76.8479C66.587 74.5703 66.7247 72.2558 67.2606 70.0381C67.4896 69.0957 67.6349 68.1304 67.6944 67.1561C67.8149 64.6624 74.6237 55.0246 76.3108 54.1484C77.0698 53.7525 77.6805 53.0713 78.0365 52.2235C78.154 51.957 78.2423 51.6754 78.2992 51.3851C79.0223 47.8804 80.8516 49.2715 80.8516 49.2715C81.2927 52.0132 88.1207 59.2706 88.1207 59.2706L88.2557 59.4216C88.9329 60.198 91.9505 63.8429 91.736 66.9539C91.6931 68.1119 91.8477 69.2683 92.1915 70.3616C93.5804 75.2532 94.3788 80.3305 94.5655 85.4586L94.7222 89.3973Z" fill="#DCE6F2"/>
<path opacity="0.1" d="M88.9233 60.0758L83.5595 62.4039L77.0854 52.6403C77.2215 52.365 77.3236 52.0741 77.3895 51.7742C78.2263 48.154 80.3434 49.591 80.3434 49.591C80.8538 52.4231 88.756 59.9198 88.756 59.9198L88.9233 60.0758Z" fill="black"/>
<path d="M89.2021 59.5188L83.8383 61.8469L77.3643 52.0834C77.5003 51.808 77.6024 51.5172 77.6683 51.2173C78.5051 47.597 80.6222 49.034 80.6222 49.034C81.1326 51.8661 89.0348 59.3629 89.0348 59.3629L89.2021 59.5188Z" fill="#DCE6F2"/>
<path opacity="0.1" d="M83.9668 116.999C83.9668 116.999 78.6464 86.5395 73.1887 85.9999L81.1321 111.499L83.9668 114.999C83.5382 115.35 92.959 109.068 92.7176 108.975C91.5892 108.546 77.3458 113.499 77.3458 113.499C77.3458 113.499 77.0307 104.744 71.2583 101.801C71.1182 101.73 70.9824 101.654 70.8514 101.57C70.1784 101.157 69.5984 100.632 69.1425 100.022C68.0764 98.6268 67.5556 96.8338 67.3305 95.0751C67.2039 94.0672 67.1568 93.0525 67.1894 92.0386C67.2174 90.8889 67.3334 89.7423 67.5366 88.6071C66.9784 84.2104 66.7066 79.7877 66.7229 75.3621C66.7907 68.4943 73.9112 66.0415 73.9112 66.0415C86.9995 64.9991 82.0176 83.5 82.0176 83.5C82.0176 83.5 82.1846 89.5269 81.9785 90.0788C81.7723 90.6307 81.0318 91.5505 81.1321 92.8382C81.2325 94.1259 81.9647 95.4997 81.9647 95.4997C81.9647 95.4997 81.9351 98.4894 82.9414 100.022C83.6738 101.153 86.205 110.638 88.8931 111.732L83.9668 116.999Z" fill="black"/>
<path opacity="0.1" d="M100.596 35.9148C100.601 36.3734 100.506 36.8277 100.317 37.2459C100.174 37.5871 100.009 37.9183 99.8209 38.2373C99.5273 38.824 99.1107 39.3407 98.5992 39.7522C97.9549 40.2117 97.1404 40.3398 96.3677 40.5264C95.5951 40.713 94.7918 41.011 94.3511 41.6682C94.1122 42.0907 93.9525 42.5531 93.8797 43.0327C93.8058 43.512 93.6141 43.9655 93.3218 44.3527C93.0087 44.7416 92.4719 44.8699 92.0164 44.6646C91.7831 44.5076 91.6062 44.2803 91.5115 44.0158C91.1935 43.3001 91.1127 42.5064 90.9843 41.735C90.856 40.9636 90.6747 40.1699 90.2006 39.5489C89.7264 38.9279 88.8868 38.5185 88.142 38.7608C87.6384 38.9544 87.2355 39.3446 87.0263 39.8413C86.8202 40.3335 86.6786 40.8502 86.6051 41.3785C86.2592 43.2685 85.8511 45.1473 85.3806 47.015C85.3663 47.0916 85.3348 47.1639 85.2886 47.2267C85.2144 47.3004 85.1143 47.3424 85.0096 47.3436C84.3848 47.4272 83.7851 46.9899 83.1547 47.0373C83.0898 47.0416 83.0254 47.0519 82.9623 47.0679C80.8745 43.4453 81.2767 38.9062 83.9692 35.7059L84.0194 35.692C84.4388 35.5433 84.8198 35.3037 85.1352 34.9902C85.5378 34.5879 85.9107 34.157 86.2509 33.7008L86.474 33.4223C87.1152 32.6512 87.8455 31.9585 88.6497 31.3588C88.8692 31.1792 89.121 31.0431 89.3916 30.9578C89.6232 30.9127 89.8606 30.9052 90.0946 30.9355C91.0578 31.051 92.029 31.0873 92.9982 31.0441C93.6736 30.9381 94.3543 30.8693 95.0372 30.838C96.8029 30.8882 98.3091 32.133 99.4248 33.4975C100.025 34.1965 100.56 35.0013 100.596 35.9148Z" fill="black"/>
<path d="M81.6401 37.4826C81.2524 38.1175 80.5523 38.5492 80.2901 39.2454C79.9052 40.2563 80.5551 41.515 79.9582 42.4173C79.7601 42.7208 79.4338 42.9464 79.3222 43.2945C79.1325 43.8821 79.6514 44.5087 79.5175 45.113C79.3836 45.7173 78.5858 46.2269 78.7978 46.8173C78.9231 47.0748 79.1429 47.2742 79.4115 47.3742C79.8341 47.6163 80.3206 47.7241 80.8061 47.6834C81.5676 47.558 82.1339 46.8117 82.9065 46.756C83.5341 46.7115 84.1338 47.1459 84.7586 47.0651C84.8633 47.0615 84.9629 47.0188 85.0375 46.9454C85.0849 46.8833 85.1165 46.8107 85.1296 46.7337C85.5982 44.8679 86.0073 42.9891 86.3569 41.0973C86.4281 40.5688 86.5688 40.0519 86.7753 39.5601C86.986 39.0644 87.3884 38.6748 87.891 38.4796C88.6358 38.2401 89.4725 38.6467 89.9495 39.2677C90.4265 39.8887 90.6078 40.6823 90.7361 41.4537C90.8644 42.2251 90.9453 43.0188 91.2605 43.7345C91.3563 43.9999 91.534 44.2281 91.7682 44.3861C92.1866 44.6284 92.75 44.4363 93.0708 44.0742C93.3646 43.6869 93.5564 43.232 93.6286 42.7515C93.7014 42.2727 93.8612 41.8112 94.1 41.3897C94.5407 40.7325 95.3469 40.4345 96.1167 40.2479C96.8866 40.0613 97.6982 39.9304 98.3482 39.471C98.8589 39.0598 99.2755 38.5442 99.5699 37.9588C99.9827 37.2403 100.368 36.4606 100.334 35.6335C100.298 34.7312 99.7623 33.9264 99.1905 33.2246C98.0748 31.8601 96.5658 30.6153 94.8001 30.5679C94.117 30.5964 93.4362 30.6652 92.7612 30.774C91.7918 30.8175 90.8206 30.7803 89.8575 30.6626C89.6233 30.6346 89.3862 30.6431 89.1546 30.6877C88.8836 30.7703 88.6322 30.9067 88.4154 31.0887C87.6104 31.6874 86.8792 32.3791 86.2369 33.1494C85.8229 33.6976 85.3738 34.2185 84.8925 34.7089C84.577 35.0229 84.1961 35.2635 83.7768 35.4135C83.4978 35.4915 83.2189 35.4358 82.9539 35.5221C82.1311 35.7811 82.0223 36.8532 81.6401 37.4826Z" fill="#965D7B"/>
<path opacity="0.1" d="M108.501 45.0545C106.27 45.4639 104.421 43.6621 103.397 42.3477C103.082 41.9485 102.796 41.5279 102.541 41.0889L110.2 42.5315L110.51 42.5899C110.51 42.5899 111.918 44.4307 108.501 45.0545Z" fill="black"/>
<g opacity="0.1">
<path d="M79.6002 44.3165C79.6422 43.9523 79.5676 43.5859 79.3825 43.2472C79.3825 43.275 79.3487 43.3029 79.3374 43.3307C79.176 43.7039 79.3937 44.091 79.5326 44.478C79.5624 44.426 79.5851 44.3719 79.6002 44.3165V44.3165Z" fill="black"/>
<path d="M80.1875 39.7578C80.1489 40.1429 80.159 40.5298 80.2176 40.9135C80.2561 40.5284 80.246 40.1415 80.1875 39.7578V39.7578Z" fill="black"/>
<path d="M99.5535 37.154C99.26 37.7407 98.8433 38.2574 98.3318 38.6689C97.6875 39.1284 96.8758 39.2565 96.1004 39.4431C95.3249 39.6297 94.5244 39.9277 94.0837 40.5849C93.8452 41.0075 93.6855 41.4699 93.6123 41.9494C93.5396 42.4299 93.3479 42.8846 93.0544 43.2722C92.7337 43.6342 92.1702 43.8292 91.7518 43.5841C91.5177 43.4261 91.3399 43.1979 91.2442 42.9325C90.929 42.2168 90.8453 41.4259 90.7198 40.6517C90.5942 39.8775 90.4074 39.0866 89.9332 38.4656C89.459 37.8446 88.6194 37.4353 87.8747 37.6775C87.3715 37.872 86.9689 38.2619 86.7589 38.758C86.5524 39.2499 86.4118 39.7667 86.3405 40.2953C85.9928 42.1871 85.5837 44.0659 85.1132 45.9317C85.1002 46.0087 85.0686 46.0813 85.0212 46.1434C84.9465 46.2167 84.847 46.2595 84.7423 46.2631C84.1174 46.3439 83.5177 45.9094 82.8902 45.954C82.1175 46.0097 81.5513 46.756 80.7898 46.8785C80.3041 46.922 79.8168 46.814 79.3951 46.5694C79.2013 46.4862 79.0273 46.3628 78.8847 46.2074C78.7525 46.3965 78.7144 46.6356 78.7815 46.8563C78.9043 47.1155 79.1249 47.3158 79.3951 47.4132C79.8168 47.6578 80.3041 47.7658 80.7898 47.7223C81.5513 47.5998 82.1175 46.8535 82.8902 46.7978C83.5177 46.7532 84.1174 47.1877 84.7423 47.1069C84.847 47.1033 84.9465 47.0605 85.0212 46.9872C85.0686 46.9251 85.1002 46.8525 85.1132 46.7755C85.5818 44.919 85.9909 43.0402 86.3405 41.1391C86.4118 40.6105 86.5524 40.0937 86.7589 39.6018C86.9689 39.1057 87.3715 38.7158 87.8747 38.5213C88.6194 38.2791 89.4562 38.6884 89.9332 39.3094C90.4102 39.9304 90.5915 40.7241 90.7198 41.4955C90.8481 42.2669 90.929 43.0606 91.2442 43.7763C91.3399 44.0417 91.5177 44.2699 91.7518 44.4279C92.1702 44.6702 92.7337 44.478 93.0544 44.116C93.3479 43.7284 93.5396 43.2737 93.6123 42.7932C93.6855 42.3137 93.8452 41.8513 94.0837 41.4287C94.5244 40.7715 95.3305 40.4763 96.1004 40.2869C96.8702 40.0975 97.6819 39.9722 98.3318 39.5127C98.8433 39.1012 99.26 38.5845 99.5535 37.9978C99.9664 37.2821 100.351 36.5023 100.318 35.6753C100.312 35.5689 100.301 35.4629 100.284 35.3578C100.15 35.9952 99.9023 36.6035 99.5535 37.154V37.154Z" fill="black"/>
</g>
<path opacity="0.1" d="M100.329 37.2375C101.044 38.5073 101.468 39.9198 101.57 41.373C99.0847 39.9806 96.7473 38.4517 95.5674 37.9198C93.5117 36.9925 85.8243 37.1317 82.9346 37.218C83.2369 36.6789 83.5899 36.1698 83.9889 35.6975C84.6492 34.9145 85.4252 34.2365 86.2901 33.6869C88.605 32.2201 91.4225 31.7691 94.0807 32.4397C96.7389 33.1102 99.0035 34.8434 100.343 37.232L100.329 37.2375Z" fill="black"/>
<path opacity="0.1" d="M109.199 43.8737C107.857 44.2859 105.667 43.4894 103.397 42.3477C103.082 41.9485 102.796 41.5279 102.541 41.0889L110.2 42.5315C110.708 42.8768 110.836 43.3697 109.199 43.8737Z" fill="black"/>
<path d="M92.2202 27.5826C92.2202 27.5826 84.8983 27.1649 82.8397 31.1332L82.5078 34.6505L81.95 34.5892L81.8384 36.9813C81.8384 36.9813 93.0291 36.494 95.5758 37.6413C98.1224 38.7887 106.036 44.57 109.207 43.5953C112.379 42.6206 108.928 41.7155 108.928 41.7155C108.928 41.7155 104.563 39.8692 104.563 38.4211C104.563 36.973 103.481 29.3231 92.2202 27.5826Z" fill="#444053"/>
<path opacity="0.1" d="M78.0977 157.967C78.0977 157.967 82.7698 162.493 84.792 162.145C84.792 162.145 79.0739 161.657 78.0977 157.967Z" fill="black"/>
<path opacity="0.1" d="M77.1216 160.064C77.1216 160.064 77.54 162.392 78.6557 162.164C79.7714 161.936 77.1216 160.064 77.1216 160.064Z" fill="black"/>
<path opacity="0.1" d="M84.4438 198.974C84.4438 198.974 77.8108 204.126 78.9293 204.265C80.0478 204.404 84.4438 198.974 84.4438 198.974Z" fill="black"/>
<path opacity="0.1" d="M132.487 123.773L128.565 124.525V118.741L132.238 117.816L132.487 123.773V123.773Z" fill="white"/>
<path opacity="0.1" d="M109.441 121.406V125.232L105.065 124.786V121.406H109.441V121.406Z" fill="white"/>
<path opacity="0.1" d="M103.732 122.611V124.647L99.3579 124.199V122.611H103.732V122.611Z" fill="white"/>
<path d="M90.5547 127.246C88.7446 130.723 82.767 128.321 82.767 128.321L78.325 121.361L77.7222 120.417L78.9009 117.129C78.9009 117.129 81.1598 116.836 81.7222 117.129C84.6992 118.692 92.0786 124.32 90.5547 127.246Z" fill="#EFB7B9"/>
<path opacity="0.1" d="M87.7222 115.543C87.1306 116.798 85.6274 118.657 84.1727 119.999L82.7222 118.884L85.5585 114.999C85.5585 114.999 86.3729 115.196 87.7222 115.543Z" fill="black"/>
<path d="M73.6724 65.0484C73.6724 65.0484 65.8342 67.9256 65.7595 75.9817C65.7417 81.1731 66.0408 86.3609 66.6553 91.5185C66.6553 91.5185 66.7454 101.308 69.2222 106.999C71.0206 111.132 69.2877 110.151 73.6724 116.499C75.8134 119.599 78.7222 123.999 78.7222 123.999C78.7222 123.999 86.5769 119.078 85.905 117.999C85.2332 116.92 83.6247 106.499 83.6247 106.499L81.2222 100.999C81.2222 100.999 81.3326 99.5096 81.2222 97.9991C81.1117 96.4886 80.7222 92.4991 80.7222 92.4991L81.2222 85.9991C81.2222 85.9991 88.0798 63.8112 73.6724 65.0484Z" fill="#DCE6F2"/>
<path opacity="0.1" d="M77.7492 90.692C77.7492 90.692 67.8471 91.8059 68.6141 95.2869C68.6141 95.2869 72.3769 91.7752 77.7492 90.692Z" fill="black"/>
<path opacity="0.1" d="M77.7491 92.0844C77.7491 92.0844 72.1287 96.192 73.1607 96.4705C74.1928 96.7489 77.7491 92.0844 77.7491 92.0844Z" fill="black"/>
<path opacity="0.1" d="M80.2596 93.7552C80.2596 93.7552 78.6557 96.6347 79.5623 96.4844C80.4688 96.334 80.2596 93.7552 80.2596 93.7552Z" fill="black"/>
<path d="M183.359 31.2976C183.359 31.2976 172.759 30.6598 173.998 38.0841C173.998 38.0841 173.749 39.3958 174.94 39.9917C174.94 39.9917 174.96 39.4348 176.028 39.6269C176.409 39.6908 176.795 39.7095 177.18 39.6826C177.702 39.6479 178.198 39.4434 178.592 39.1006V39.1006C178.592 39.1006 181.573 37.8725 182.734 33.0046C182.734 33.0046 183.593 31.9408 183.571 31.6679L181.78 32.4338C181.78 32.4338 182.391 33.7231 181.908 34.7953C181.908 34.7953 181.852 32.4811 181.506 32.534C181.437 32.534 180.578 32.9824 180.578 32.9824C180.578 32.9824 181.629 35.2269 180.834 36.8616C180.834 36.8616 181.135 34.0935 180.248 33.1439L178.988 33.8791C178.988 33.8791 180.218 36.1988 179.384 38.0925C179.384 38.0925 179.599 35.1879 178.723 34.0573L177.579 34.9457C177.579 34.9457 178.737 37.2348 178.031 38.8054C178.031 38.8054 177.939 35.4246 177.331 35.1684C177.331 35.1684 176.332 36.0484 176.182 36.4105C176.182 36.4105 176.971 38.0813 176.48 38.9474C176.48 38.9474 176.179 36.6945 175.922 36.6834C175.922 36.6834 174.926 38.176 174.823 39.1897C174.871 38.2447 175.167 37.3287 175.68 36.533C175.106 36.6414 174.576 36.9154 174.157 37.3211C174.157 37.3211 174.31 36.2657 175.925 36.1738C175.925 36.1738 176.762 35.0403 176.968 34.9707C176.968 34.9707 175.362 34.837 174.388 35.2687C174.388 35.2687 175.244 34.2745 177.264 34.7117L178.38 33.7927C178.38 33.7927 176.265 33.5143 175.367 33.8234C175.367 33.8234 176.399 32.9434 178.684 33.5839L179.911 32.8515C179.911 32.8515 178.109 32.4616 177.035 32.6036C177.035 32.6036 178.168 31.9938 180.271 32.6538L181.149 32.2611C181.149 32.2611 179.827 32.0021 179.442 31.9603C179.057 31.9186 179.035 31.8127 179.035 31.8127C179.872 31.6738 180.73 31.7702 181.515 32.0912C181.515 32.0912 183.398 31.4145 183.359 31.2976Z" fill="#008080"/>
<path opacity="0.1" d="M215.564 68.4302C215.564 68.4302 204.964 67.7925 206.203 75.2168C206.203 75.2168 205.954 76.5284 207.145 77.1244C207.145 77.1244 207.165 76.5674 208.236 76.7596C208.617 76.8235 209.003 76.8422 209.388 76.8153C209.904 76.778 210.393 76.5747 210.783 76.236V76.236C210.783 76.236 213.767 75.0051 214.928 70.1373C214.928 70.1373 215.784 69.0763 215.751 68.8034L213.96 69.5664C213.96 69.5664 214.571 70.8558 214.091 71.9279C214.091 71.9279 214.032 69.6138 213.689 69.6667C213.619 69.6667 212.758 70.115 212.758 70.115C212.758 70.115 213.812 72.3624 213.017 73.9943C213.017 73.9943 213.318 71.2262 212.428 70.2765L211.182 71.0034C211.182 71.0034 212.412 73.3231 211.578 75.2168C211.578 75.2168 211.792 72.3122 210.917 71.1816L209.776 72.0727C209.776 72.0727 210.931 74.3591 210.228 75.9297C210.228 75.9297 210.136 72.5489 209.528 72.2927C209.528 72.2927 208.529 73.1727 208.376 73.5348C208.376 73.5348 209.168 75.2057 208.677 76.0717C208.677 76.0717 208.376 73.8188 208.119 73.8077C208.119 73.8077 207.123 75.3003 207.02 76.314C207.07 75.3689 207.366 74.4531 207.879 73.6573C207.304 73.766 206.774 74.0399 206.353 74.4454C206.353 74.4454 206.51 73.39 208.125 73.2981C208.125 73.2981 208.947 72.1646 209.168 72.095C209.168 72.095 207.561 71.9614 206.588 72.393C206.588 72.393 207.444 71.3988 209.461 71.85L210.576 70.931C210.576 70.931 208.459 70.6525 207.564 70.9616C207.564 70.9616 208.596 70.0816 210.88 70.7221L212.108 69.9897C212.108 69.9897 210.303 69.6026 209.229 69.7419C209.229 69.7419 210.364 69.132 212.468 69.792L213.346 69.3993C213.346 69.3993 212.024 69.1403 211.636 69.0986C211.249 69.0568 211.229 68.951 211.229 68.951C212.066 68.8119 212.926 68.9083 213.712 69.2295C213.712 69.2295 215.597 68.5472 215.564 68.4302Z" fill="#008080"/>
<path opacity="0.1" d="M151.172 61.8386C151.172 61.8386 153.613 51.5097 146.071 51.4735C146.071 51.4735 144.818 51.0057 144.029 52.075C144.029 52.075 144.567 52.1892 144.202 53.2084C144.076 53.5689 143.991 53.9426 143.951 54.3224C143.897 54.84 144.013 55.3611 144.283 55.8067V55.8067C144.283 55.8067 144.989 58.9535 149.583 60.9251C149.583 60.9251 150.486 61.95 150.76 61.9611L150.313 60.0702C150.313 60.0702 148.935 60.4517 147.959 59.7917C147.959 59.7917 150.255 60.1287 150.258 59.7917C150.258 59.7221 149.979 58.8003 149.979 58.8003C149.979 58.8003 147.583 59.452 146.104 58.391C146.104 58.391 148.785 59.1596 149.875 58.4494L149.373 57.0793C149.373 57.0793 146.863 57.8953 145.145 56.7507C145.145 56.7507 147.976 57.4581 149.242 56.7897L148.559 55.5143C148.559 55.5143 146.104 56.2606 144.673 55.2998C144.673 55.2998 148.021 55.7844 148.383 55.233C148.383 55.233 147.686 54.0996 147.354 53.8879C147.354 53.8879 145.58 54.3836 144.799 53.7515C144.799 53.7515 147.072 53.8378 147.125 53.5983C147.125 53.5983 145.823 52.3646 144.83 52.0862C145.755 52.2965 146.609 52.7438 147.309 53.3839C147.299 52.8002 147.119 52.2322 146.79 51.7492C146.79 51.7492 147.806 52.0834 147.627 53.6986C147.627 53.6986 148.603 54.7011 148.634 54.9294C148.634 54.9294 149.039 53.3727 148.779 52.3396C148.779 52.3396 149.616 53.3532 148.827 55.2608L149.541 56.5279C149.541 56.5279 150.188 54.495 150.023 53.5593C150.023 53.5593 150.718 54.7234 149.694 56.8621L150.21 58.196C150.21 58.196 150.899 56.4862 150.944 55.4112C150.944 55.4112 151.354 56.631 150.341 58.5887L150.581 59.5188C150.581 59.5188 151.061 58.2629 151.167 57.8897C151.273 57.5165 151.382 57.5138 151.382 57.5138C151.377 58.361 151.137 59.1903 150.687 59.9087C150.687 59.9087 151.052 61.8525 151.172 61.8386Z" fill="#008080"/>
<path opacity="0.1" d="M127.96 65.3586C127.96 65.3586 119.447 59.0008 116.403 65.8877C116.403 65.8877 115.475 66.8484 116.141 67.9985C116.141 67.9985 116.459 67.5502 117.257 68.2937C117.54 68.5562 117.852 68.7843 118.189 68.9732C118.644 69.2265 119.17 69.3243 119.686 69.2517V69.2517C119.686 69.2517 122.855 69.8616 126.504 66.4335C126.504 66.4335 127.806 66.0158 127.929 65.7707L126.007 65.4337C126.007 65.4337 125.806 66.8456 124.816 67.4778C124.816 67.4778 126.041 65.5117 125.723 65.3697C125.658 65.3391 124.699 65.2304 124.699 65.2304C124.699 65.2304 124.342 67.6867 122.78 68.614C122.78 68.614 124.557 66.4669 124.336 65.1859L122.877 65.1079C122.877 65.1079 122.629 67.7229 120.889 68.8479C120.889 68.8479 122.665 66.5393 122.562 65.1135L121.117 65.2304C121.117 65.2304 120.824 67.773 119.371 68.6975C119.371 68.6975 121.154 65.8236 120.788 65.2778C120.788 65.2778 119.469 65.4644 119.143 65.6816C119.143 65.6816 118.889 67.5029 117.996 67.9651C117.996 67.9651 118.986 65.9183 118.785 65.7763C118.785 65.7763 117.131 66.4753 116.482 67.2717C117.044 66.5091 117.796 65.9063 118.663 65.5229C118.123 65.299 117.53 65.237 116.956 65.3446C116.956 65.3446 117.664 64.5482 119.064 65.3586C119.064 65.3586 120.375 64.8656 120.599 64.9269C120.599 64.9269 119.329 63.9327 118.278 63.7601C118.278 63.7601 119.544 63.398 120.981 64.874L122.428 64.7264C122.428 64.7264 120.819 63.334 119.896 63.1001C119.896 63.1001 121.243 62.9302 122.797 64.718L124.225 64.7821C124.225 64.7821 122.933 63.4677 121.96 62.9942C121.96 62.9942 123.24 63.1056 124.635 64.8127L125.586 64.9659C125.586 64.9659 124.624 64.0246 124.322 63.7796C124.021 63.5345 124.063 63.4315 124.063 63.4315C124.839 63.7745 125.504 64.326 125.985 65.0244C125.985 65.0244 127.923 65.4727 127.96 65.3586Z" fill="#008080"/>
<path opacity="0.1" d="M156.302 6.28995C156.302 6.28995 147.789 -0.0705607 144.746 6.81906C144.746 6.81906 143.817 7.77982 144.484 8.92995C144.484 8.92995 144.801 8.48159 145.599 9.22514C145.883 9.48623 146.197 9.71334 146.534 9.90184C146.989 10.1553 147.515 10.2531 148.032 10.1803C148.032 10.1803 151.2 10.7902 154.849 7.35931C154.849 7.35931 156.151 6.94438 156.271 6.69653L154.349 6.36514C154.349 6.36514 154.151 7.77703 153.158 8.40919C153.158 8.40919 154.386 6.44311 154.068 6.30108C154.003 6.27045 153.044 6.16184 153.044 6.16184C153.044 6.16184 152.676 8.62362 151.114 9.54539C151.114 9.54539 152.888 7.3983 152.67 6.11729L151.211 6.03931C151.211 6.03931 150.96 8.65425 149.223 9.77653C149.223 9.77653 150.999 7.46792 150.896 6.0421L149.454 6.15906C149.454 6.15906 149.158 8.70438 147.705 9.62893C147.705 9.62893 149.49 6.75501 149.125 6.20919C149.125 6.20919 147.806 6.39577 147.479 6.61298C147.479 6.61298 147.225 8.43425 146.333 8.89653C146.333 8.89653 147.323 6.84969 147.122 6.70488C147.122 6.70488 145.468 7.40665 144.818 8.20311C145.38 7.43971 146.132 6.83669 146.999 6.45425C146.459 6.2287 145.865 6.16671 145.29 6.27602C145.29 6.27602 146.001 5.47957 147.401 6.28995C147.401 6.28995 148.712 5.79425 148.935 5.8583C148.935 5.8583 147.666 4.86412 146.615 4.68868C146.615 4.68868 147.878 4.32944 149.315 5.8026L150.762 5.65501C150.762 5.65501 149.156 4.2626 148.23 4.0259C148.23 4.0259 149.577 3.85881 151.133 5.64665L152.561 5.70792C152.561 5.70792 151.27 4.39349 150.294 3.92286C150.294 3.92286 151.577 4.03425 152.971 5.74134L153.92 5.8945C153.92 5.8945 152.955 4.96438 152.653 4.72488C152.352 4.48539 152.394 4.37957 152.394 4.37957C153.17 4.72226 153.836 5.27379 154.316 5.97248C154.316 5.97248 156.254 6.39577 156.302 6.28995Z" fill="#008080"/>
<path opacity="0.1" d="M188.831 14.3464C188.831 14.3464 185.428 4.29045 179.01 8.2421C179.01 8.2421 177.699 8.52058 177.596 9.83223C177.596 9.83223 178.112 9.64286 178.34 10.7011C178.425 11.0775 178.554 11.4429 178.723 11.7899C178.953 12.257 179.329 12.6371 179.794 12.8732V12.8732C179.794 12.8732 182.059 15.1707 187.012 14.4105C187.012 14.4105 188.321 14.8059 188.561 14.6694L187.166 13.3021C187.166 13.3021 186.201 14.352 185.024 14.3102C185.024 14.3102 187.152 13.3856 186.976 13.0877C186.94 13.0292 186.212 12.397 186.212 12.397C186.212 12.397 184.522 14.2155 182.709 14.0958C182.709 14.0958 185.389 13.3327 185.936 12.1464L184.781 11.258C184.781 11.258 183.091 13.2687 181.018 13.2074C181.018 13.2074 183.808 12.3135 184.513 11.077L183.258 10.3558C183.258 10.3558 181.584 12.2856 179.849 12.2244C179.849 12.2244 182.951 10.8682 182.96 10.211C182.96 10.211 181.769 9.6178 181.375 9.61223C181.375 9.61223 180.131 10.9684 179.144 10.8459C179.144 10.8459 181.119 9.71805 181.035 9.48691C181.035 9.48691 179.278 9.12767 178.287 9.41729C179.183 9.10596 180.145 9.03396 181.077 9.20843C180.758 8.71802 180.304 8.33091 179.769 8.09451C179.769 8.09451 180.806 7.84109 181.501 9.30033C181.501 9.30033 182.862 9.63729 183.007 9.81273C183.007 9.81273 182.527 8.2783 181.76 7.53754C181.76 7.53754 183.007 7.95805 183.347 9.99375L184.625 10.6899C184.625 10.6899 184.098 8.6264 183.462 7.90514C183.462 7.90514 184.669 8.52894 184.932 10.8821L186.075 11.7426C186.075 11.7426 185.757 9.92691 185.222 8.98564C185.222 8.98564 186.215 9.80438 186.393 12.0016L187.088 12.6644C187.088 12.6644 186.831 11.3444 186.725 10.9712C186.619 10.598 186.706 10.573 186.706 10.573C187.149 11.2954 187.384 12.1262 187.383 12.9735C187.383 12.9735 188.733 14.4188 188.831 14.3464Z" fill="#008080"/>
<path opacity="0.1" d="M166.622 14.8421C166.622 14.8421 156.051 13.6669 156.924 21.1553C156.924 21.1553 156.609 22.453 157.761 23.1046C157.761 23.1046 157.808 22.5477 158.876 22.7983C159.254 22.8794 159.639 22.9177 160.026 22.9125C160.547 22.9031 161.051 22.7242 161.462 22.4029V22.4029C161.462 22.4029 164.505 21.3251 165.925 16.5213C165.925 16.5213 166.834 15.5049 166.815 15.2292L164.988 15.9031C164.988 15.9031 165.546 17.2203 164.988 18.2674C164.988 18.2674 165.046 15.9532 164.709 15.9894C164.639 15.9894 163.758 16.3905 163.758 16.3905C163.758 16.3905 164.695 18.6879 163.819 20.2892C163.819 20.2892 164.26 17.5378 163.42 16.5464L162.123 17.2148C162.123 17.2148 163.239 19.5958 162.304 21.4449C162.304 21.4449 162.667 18.5543 161.85 17.3819L160.664 18.2173C160.664 18.2173 161.702 20.5593 160.918 22.0938C160.918 22.0938 160.999 18.713 160.405 18.4262C160.405 18.4262 159.362 19.2616 159.192 19.6069C159.192 19.6069 159.897 21.3057 159.364 22.155C159.364 22.155 159.178 19.891 158.932 19.8687C158.932 19.8687 157.861 21.3084 157.705 22.3249C157.802 21.3825 158.144 20.4819 158.698 19.7127C158.119 19.7926 157.576 20.0394 157.136 20.4229C157.136 20.4229 157.342 19.3786 158.96 19.3674C158.96 19.3674 159.839 18.2786 160.076 18.2201C160.076 18.2201 158.477 18.0057 157.482 18.3872C157.482 18.3872 158.388 17.4348 160.38 17.9889L161.554 17.1284C161.554 17.1284 159.431 16.6996 158.533 16.9781C158.533 16.9781 159.61 16.1426 161.858 16.9084L163.122 16.2373C163.122 16.2373 161.339 15.7583 160.26 15.8446C160.26 15.8446 161.423 15.2877 163.49 16.0591L164.388 15.711C164.388 15.711 163.08 15.3851 162.695 15.3239C162.31 15.2626 162.296 15.1568 162.296 15.1568C163.139 15.0602 163.993 15.199 164.762 15.5578C164.762 15.5578 166.642 14.9591 166.622 14.8421Z" fill="#008080"/>
<path opacity="0.1" d="M259.116 96.7629C259.116 96.7629 248.55 95.5877 249.423 103.068C249.423 103.068 249.108 104.365 250.26 105.017C250.26 105.017 250.308 104.46 251.376 104.708C251.753 104.792 252.139 104.83 252.525 104.822C253.047 104.814 253.552 104.635 253.962 104.312V104.312C253.962 104.312 257.005 103.235 258.411 98.4337C258.411 98.4337 259.32 97.4145 259.3 97.1416L257.473 97.8127C257.473 97.8127 258.031 99.1327 257.473 100.18C257.473 100.18 257.532 97.8629 257.194 97.9018C257.125 97.9018 256.243 98.3001 256.243 98.3001C256.243 98.3001 257.18 100.598 256.305 102.199C256.305 102.199 256.745 99.4502 255.906 98.456L254.609 99.1272C254.609 99.1272 255.724 101.508 254.793 103.357C254.793 103.357 255.153 100.467 254.335 99.2915L253.15 100.127C253.15 100.127 254.187 102.469 253.404 104.001C253.404 104.001 253.485 100.62 252.89 100.336C252.89 100.336 251.85 101.171 251.677 101.517C251.677 101.517 252.386 103.215 251.85 104.065C251.85 104.065 251.663 101.801 251.418 101.778C251.418 101.778 250.347 103.218 250.19 104.235C250.287 103.292 250.63 102.392 251.183 101.622C250.604 101.701 250.061 101.948 249.621 102.332C249.621 102.332 249.828 101.285 251.446 101.274C251.446 101.274 252.327 100.185 252.561 100.13C252.561 100.13 250.963 99.9125 249.967 100.294C249.967 100.294 250.874 99.3444 252.868 99.8986L254.04 99.038C254.04 99.038 251.942 98.6426 251.03 98.9155C251.03 98.9155 252.107 98.0801 254.355 98.8431L255.618 98.1748C255.618 98.1748 253.836 97.6958 252.757 97.7821C252.757 97.7821 253.92 97.2251 255.987 97.9965L256.885 97.6456C256.885 97.6456 255.577 97.3198 255.192 97.2613C254.807 97.2029 254.793 97.0943 254.793 97.0943C255.636 96.9959 256.49 97.1338 257.259 97.4925C257.259 97.4925 259.144 96.8826 259.116 96.7629Z" fill="#008080"/>
<path opacity="0.1" d="M275.269 106.616C275.269 106.616 264.703 105.443 265.576 112.92C265.576 112.92 265.264 114.218 266.413 114.87C266.413 114.87 266.46 114.313 267.529 114.563C267.905 114.645 268.29 114.683 268.675 114.675C269.194 114.664 269.696 114.486 270.106 114.168V114.168C270.106 114.168 273.146 113.09 274.552 108.286C274.552 108.286 275.464 107.27 275.442 106.994L273.615 107.665C273.615 107.665 274.173 108.985 273.615 110.032C273.615 110.032 273.674 107.718 273.336 107.755C273.266 107.755 272.385 108.153 272.385 108.153C272.385 108.153 273.322 110.45 272.446 112.051C272.446 112.051 272.887 109.303 272.047 108.311L270.75 108.98C270.75 108.98 271.866 111.361 270.934 113.21C270.934 113.21 271.294 110.319 270.477 109.147L269.292 109.982C269.292 109.982 270.329 112.324 269.548 113.859C269.548 113.859 269.626 110.475 269.032 110.191C269.032 110.191 267.992 111.027 267.819 111.372C267.819 111.372 268.527 113.071 267.992 113.92C267.992 113.92 267.805 111.656 267.559 111.634C267.559 111.634 266.488 113.073 266.335 114.09C266.431 113.148 266.773 112.248 267.325 111.478C266.746 111.558 266.203 111.804 265.763 112.188C265.763 112.188 265.972 111.141 267.59 111.132C267.59 111.132 268.469 110.044 268.706 109.985C268.706 109.985 267.108 109.771 266.112 110.152C266.112 110.152 267.018 109.2 269.013 109.754L270.184 108.893C270.184 108.893 268.087 108.498 267.174 108.771C267.174 108.771 268.251 107.936 270.499 108.701L271.763 108.03C271.763 108.03 269.981 107.551 268.901 107.638C268.901 107.638 270.064 107.081 272.131 107.852L273.029 107.504C273.029 107.504 271.721 107.178 271.339 107.117C270.957 107.056 270.937 106.95 270.937 106.95C271.78 106.853 272.634 106.992 273.403 107.351C273.403 107.351 275.297 106.735 275.269 106.616Z" fill="#008080"/>
<path opacity="0.1" d="M239.407 23.6254C239.407 23.6254 230.894 17.2677 227.851 24.1545C227.851 24.1545 226.922 25.1153 227.588 26.2654C227.588 26.2654 227.906 25.817 228.704 26.5606C228.987 26.823 229.3 27.0511 229.636 27.2401C230.091 27.4931 230.617 27.5909 231.134 27.5186V27.5186C231.134 27.5186 234.302 28.1284 237.954 24.7003C237.954 24.7003 239.253 24.2826 239.376 24.0375L237.46 23.6922C237.46 23.6922 237.259 25.1041 236.269 25.7363C236.269 25.7363 237.493 23.7702 237.175 23.6282C237.111 23.5975 236.154 23.4889 236.154 23.4889C236.154 23.4889 235.795 25.9451 234.233 26.8725C234.233 26.8725 236.009 24.7254 235.789 23.4444L234.33 23.3664C234.33 23.3664 234.082 25.9813 232.341 27.1064C232.341 27.1064 234.121 24.7978 234.015 23.372L232.57 23.4889C232.57 23.4889 232.291 26.0315 230.824 26.956C230.824 26.956 232.609 24.0821 232.241 23.5363C232.241 23.5363 230.922 23.7229 230.595 23.9401C230.595 23.9401 230.344 25.7613 229.452 26.2236C229.452 26.2236 230.439 24.1768 230.238 24.0348C230.238 24.0348 228.584 24.7338 227.934 25.5302C228.497 24.7676 229.248 24.1648 230.116 23.7813C229.576 23.5575 228.983 23.4955 228.409 23.6031C228.409 23.6031 229.12 22.8067 230.52 23.617C230.52 23.617 231.828 23.1241 232.051 23.1854C232.051 23.1854 230.782 22.1912 229.731 22.0186C229.731 22.0186 230.997 21.6565 232.434 23.1325L233.881 22.9849C233.881 22.9849 232.275 21.5925 231.348 21.3586C231.348 21.3586 232.696 21.1887 234.249 22.9765L235.68 23.0406C235.68 23.0406 234.386 21.7262 233.413 21.2527C233.413 21.2527 234.696 21.3641 236.088 23.0712L237.039 23.2244C237.039 23.2244 236.076 22.2831 235.775 22.0381C235.474 21.793 235.519 21.7122 235.519 21.7122C236.293 22.0559 236.958 22.6073 237.438 23.3051C237.438 23.3051 239.371 23.7396 239.407 23.6254Z" fill="#008080"/>
<path opacity="0.1" d="M245.984 69.5246C245.984 69.5246 243.05 59.3239 236.45 62.9859C236.45 62.9859 235.128 63.1892 234.963 64.5092C234.963 64.5092 235.488 64.3449 235.669 65.4115C235.736 65.7946 235.849 66.1685 236.004 66.5254C236.211 67.0053 236.569 67.4043 237.025 67.6616V67.6616C237.025 67.6616 239.184 70.0565 244.165 69.5218C244.165 69.5218 245.454 69.973 245.699 69.8504L244.38 68.4191C244.38 68.4191 243.368 69.4272 242.196 69.3325C242.196 69.3325 244.361 68.497 244.193 68.1991C244.16 68.1378 243.462 67.4722 243.462 67.4722C243.462 67.4722 241.694 69.2155 239.887 69.0122C239.887 69.0122 242.601 68.3717 243.197 67.2188L242.082 66.2775C242.082 66.2775 240.302 68.2102 238.235 68.0598C238.235 68.0598 241.047 67.2884 241.822 66.0882L240.601 65.3112C240.601 65.3112 238.829 67.1631 237.111 67.0239C237.111 67.0239 240.271 65.8069 240.311 65.1525C240.311 65.1525 239.145 64.5064 238.751 64.4841C238.751 64.4841 237.449 65.7818 236.458 65.6147C236.458 65.6147 238.483 64.576 238.411 64.3421C238.411 64.3421 236.67 63.9049 235.669 64.1472C236.576 63.8786 237.537 63.8508 238.458 64.0664C238.163 63.5625 237.727 63.1559 237.203 62.8968C237.203 62.8968 238.252 62.6879 238.877 64.1778C238.877 64.1778 240.218 64.5732 240.358 64.757C240.358 64.757 239.948 63.2003 239.214 62.4289C239.214 62.4289 240.442 62.9023 240.69 64.952L241.934 65.7066C241.934 65.7066 241.499 63.618 240.896 62.8828C240.896 62.8828 242.073 63.5596 242.232 65.9211L243.348 66.8317C243.348 66.8317 243.111 65.0049 242.62 64.0469C242.62 64.0469 243.577 64.9102 243.655 67.1102L244.319 67.8064C244.319 67.8064 244.123 66.4753 244.04 66.0965C243.956 65.7178 244.04 65.6649 244.04 65.6649C244.453 66.4056 244.651 67.2465 244.612 68.0932C244.612 68.0932 245.884 69.5915 245.984 69.5246Z" fill="#008080"/>
<path opacity="0.1" d="M180.597 92.5105C180.597 92.5105 174.898 83.5489 169.607 88.9125C169.607 88.9125 168.396 89.4694 168.608 90.7922C168.608 90.7922 169.069 90.4859 169.543 91.4606C169.713 91.806 169.925 92.1295 170.173 92.4241C170.506 92.8262 170.962 93.108 171.47 93.2262V93.2262C171.47 93.2262 174.218 94.9193 178.848 93.0034C178.848 93.0034 180.212 93.0758 180.413 92.8892L178.739 91.8867C178.739 91.8867 178.05 93.1398 176.898 93.3765C176.898 93.3765 178.745 91.9841 178.497 91.7279C178.449 91.6778 177.59 91.2378 177.59 91.2378C177.59 91.2378 176.382 93.4044 174.591 93.7191C174.591 93.7191 177.015 92.3406 177.266 91.0651L175.93 90.4775C175.93 90.4775 174.767 92.8307 172.742 93.2624C172.742 93.2624 175.225 91.7335 175.629 90.3634L174.234 89.9624C174.234 89.9624 173.057 92.2375 171.37 92.5856C171.37 92.5856 174.059 90.5305 173.911 89.8899C173.911 89.8899 172.611 89.5975 172.237 89.6867C172.237 89.6867 171.353 91.2991 170.355 91.416C170.355 91.416 172.006 89.851 171.869 89.6449C171.869 89.6449 170.076 89.7145 169.183 90.2297C169.979 89.7147 170.897 89.4171 171.844 89.3664C171.42 88.9656 170.888 88.6975 170.313 88.595C170.313 88.595 171.258 88.1021 172.265 89.3553C172.265 89.3553 173.66 89.3553 173.852 89.4945C173.852 89.4945 173.016 88.1021 172.098 87.5813C172.098 87.5813 173.409 87.6927 174.223 89.5892L175.632 89.9624C175.632 89.9624 174.625 88.0826 173.841 87.5451C173.841 87.5451 175.161 87.8626 175.978 90.0877L177.294 90.6446C177.294 90.6446 176.552 88.9598 175.808 88.1717C175.808 88.1717 176.968 88.7287 177.663 90.8201L178.499 91.3018C178.499 91.3018 177.941 90.0793 177.743 89.7424C177.545 89.4054 177.623 89.3274 177.623 89.3274C178.227 89.9227 178.653 90.6738 178.854 91.4968C178.854 91.4968 180.522 92.6051 180.597 92.5105Z" fill="#008080"/>
<path d="M218.049 46.7226C218.049 46.7226 212.629 37.5912 207.171 42.7877C207.171 42.7877 205.943 43.3168 206.116 44.6368C206.116 44.6368 206.582 44.3416 207.028 45.3302C207.188 45.6816 207.389 46.0126 207.628 46.316C207.948 46.7267 208.396 47.0204 208.9 47.1515V47.1515C208.9 47.1515 211.592 48.9282 216.281 47.1515C216.281 47.1515 217.642 47.2656 217.848 47.0846L216.211 46.032C216.211 46.032 215.486 47.2601 214.325 47.4634C214.325 47.4634 216.214 46.1183 215.977 45.8649C215.926 45.812 215.084 45.3441 215.084 45.3441C215.084 45.3441 213.809 47.4745 212.016 47.7335C212.016 47.7335 214.481 46.4302 214.769 45.1659L213.452 44.5477C213.452 44.5477 212.217 46.8674 210.178 47.2378C210.178 47.2378 212.707 45.7869 213.154 44.4307L211.776 43.9851C211.776 43.9851 210.526 46.213 208.83 46.5193C208.83 46.5193 211.581 44.5477 211.452 43.9044C211.452 43.9044 210.164 43.5702 209.779 43.6482C209.779 43.6482 208.844 45.2327 207.843 45.3191C207.843 45.3191 209.542 43.8097 209.413 43.598C209.413 43.598 207.617 43.612 206.71 44.0993C207.523 43.6103 208.448 43.3415 209.397 43.3196C208.984 42.9056 208.46 42.621 207.888 42.5008C207.888 42.5008 208.85 42.0358 209.84 43.3196C209.84 43.3196 211.235 43.3669 211.422 43.5089C211.422 43.5089 210.632 42.1165 209.728 41.5429C209.728 41.5429 211.034 41.6932 211.79 43.6148L213.184 44.0325C213.184 44.0325 212.239 42.1221 211.469 41.5596C211.469 41.5596 212.78 41.9188 213.528 44.1661L214.825 44.7705C214.825 44.7705 214.136 43.0634 213.43 42.2641C213.43 42.2641 214.571 42.8573 215.204 44.9682L216.021 45.475C216.021 45.475 215.497 44.2358 215.313 43.8932C215.129 43.5507 215.207 43.4755 215.207 43.4755C215.791 44.0891 216.194 44.8526 216.37 45.6811C216.37 45.6811 217.968 46.8145 218.049 46.7226Z" fill="#008080"/>
<path d="M183.76 65.9239C183.76 65.9239 184.039 55.3138 176.655 56.8092C176.655 56.8092 175.333 56.6059 174.775 57.8145C174.775 57.8145 175.333 57.8145 175.177 58.8867C175.126 59.269 175.12 59.656 175.16 60.0396C175.211 60.5599 175.431 61.0492 175.788 61.432V61.432C175.788 61.432 177.118 64.3672 182.03 65.3641C182.03 65.3641 183.121 66.1857 183.394 66.1411L182.558 64.3811C182.558 64.3811 181.288 65.0327 180.198 64.59C180.198 64.59 182.513 64.4535 182.449 64.1138C182.449 64.0441 181.969 63.1976 181.969 63.1976C181.969 63.1976 179.754 64.3254 178.095 63.5846C178.095 63.5846 180.884 63.7935 181.796 62.8773L181.018 61.6436C181.018 61.6436 178.736 62.9469 176.812 62.1783C176.812 62.1783 179.726 62.2953 180.831 61.3846L179.902 60.2707C179.902 60.2707 177.651 61.5016 176.056 60.85C176.056 60.85 179.436 60.6467 179.682 60.0312C179.682 60.0312 178.767 59.0649 178.399 58.9173C178.399 58.9173 176.764 59.7527 175.872 59.3016C175.872 59.3016 178.103 58.9284 178.117 58.6806C178.117 58.6806 176.591 57.7365 175.562 57.6669C176.511 57.6839 177.439 57.9489 178.254 58.4355C178.127 57.8663 177.836 57.3465 177.417 56.9401C177.417 56.9401 178.48 57.0598 178.625 58.6667C178.625 58.6667 179.788 59.452 179.863 59.6692C179.863 59.6692 179.944 58.0624 179.478 57.1044C179.478 57.1044 180.505 57.9259 180.12 59.9532L181.076 61.0505C181.076 61.0505 181.294 58.9284 180.945 58.0457C180.945 58.0457 181.86 59.0454 181.297 61.3457L182.069 62.5459C182.069 62.5459 182.399 60.733 182.223 59.6664C182.223 59.6664 182.87 60.7803 182.279 62.8996L182.703 63.7629C182.703 63.7629 182.917 62.4345 182.945 62.0474C182.973 61.6603 183.079 61.6353 183.079 61.6353C183.247 62.466 183.18 63.327 182.887 64.1221C182.887 64.1221 183.637 65.9601 183.76 65.9239Z" fill="#008080"/>
<ellipse opacity="0.1" cx="195.966" cy="199.475" rx="7.51163" ry="1.26709" fill="#008080"/>
<ellipse opacity="0.1" cx="168.583" cy="218.712" rx="7.51163" ry="1.26709" fill="#008080"/>
<ellipse opacity="0.1" cx="26.9809" cy="208.857" rx="7.51163" ry="1.26709" fill="#008080"/>
<ellipse opacity="0.1" cx="225.558" cy="217.445" rx="7.51163" ry="1.26709" fill="#008080"/>
<ellipse cx="233.379" cy="201.369" rx="11.2158" ry="1.89367" fill="#008080"/>
<path d="M238.029 198.269C238.541 197.854 238.914 197.292 239.098 196.66C239.237 196.019 238.964 195.253 238.353 195.019C237.667 194.758 236.933 195.231 236.375 195.71C235.817 196.189 235.184 196.738 234.456 196.637C235.216 195.948 235.559 194.911 235.36 193.905C235.328 193.7 235.241 193.508 235.109 193.348C234.727 192.942 234.038 193.117 233.58 193.438C232.13 194.457 231.725 196.423 231.717 198.194C231.572 197.556 231.695 196.891 231.692 196.245C231.689 195.599 231.508 194.852 230.953 194.512C230.612 194.323 230.227 194.227 229.837 194.234C229.184 194.212 228.456 194.276 228.013 194.752C227.455 195.342 227.603 196.337 228.082 196.98C228.562 197.623 229.296 198.038 229.971 198.489C230.511 198.811 230.972 199.25 231.321 199.773C231.361 199.846 231.393 199.922 231.419 200.001H235.508C236.423 199.541 237.271 198.958 238.029 198.269Z" fill="#008080"/>
<path d="M21.938 202.967C21.938 202.967 26.2196 202.836 27.5166 201.917C28.8137 200.998 34.1078 199.904 34.4286 201.377C34.7493 202.85 40.8663 208.698 36.0296 208.737C31.1929 208.776 24.7915 207.985 23.5028 207.2C22.2141 206.415 21.938 202.967 21.938 202.967Z" fill="#A8A8A8"/>
<path opacity="0.2" d="M36.1105 208.225C31.2738 208.264 24.8724 207.473 23.5837 206.688C22.6018 206.092 22.2113 203.95 22.0802 202.962H21.938C21.938 202.962 22.2169 206.412 23.4972 207.195C24.7775 207.977 31.1874 208.771 36.024 208.732C37.4187 208.732 37.9013 208.225 37.8761 207.49C37.6809 207.938 37.1481 208.217 36.1105 208.225Z" fill="black"/>
<defs>
<linearGradient id="paint0_linear_4_105" x1="81.738" y1="33.9264" x2="82.3124" y2="33.9264" gradientUnits="userSpaceOnUse">
<stop stop-color="#808080" stop-opacity="0.25"/>
<stop offset="0.54" stop-color="#808080" stop-opacity="0.12"/>
<stop offset="1" stop-color="#808080" stop-opacity="0.1"/>
</linearGradient>
</defs>
</svg>
